<svg xmlns="http://www.w3.org/2000/svg" viewBox="0 0 400 400" role="img" aria-labelledby="title"><title>Backpack product illustration</title><defs><linearGradient id="bg" x1="0" y1="0" x2="1" y2="1"><stop stop-color="#dbeafe"/><stop offset="1" stop-color="#bfdbfe"/></linearGradient><linearGradient id="bag" x1="0" y1="0" x2="1" y2="1"><stop stop-color="#0f766e"/><stop offset="1" stop-color="#164e63"/></linearGradient></defs><rect width="400" height="400" rx="36" fill="url(#bg)"/><circle cx="310" cy="86" r="55" fill="#fff" opacity=".35"/><path d="M143 143c0-34 25-58 57-58s57 24 57 58v19h-28v-19c0-18-12-31-29-31s-29 13-29 31v19h-28z" fill="#075985"/><rect x="92" y="142" width="216" height="182" rx="44" fill="url(#bag)"/><rect x="118" y="176" width="164" height="110" rx="25" fill="#115e59"/><path d="M164 176h72v30h-72z" fill="#14b8a6" opacity=".8"/><path d="M130 230h140" stroke="#99f6e4" stroke-width="6" stroke-linecap="round" opacity=".5"/><path d="M92 197c-26 12-37 37-31 62" stroke="#075985" stroke-width="14" stroke-linecap="round" fill="none"/><path d="M308 197c26 12 37 37 31 62" stroke="#075985" stroke-width="14" stroke-linecap="round" fill="none"/></svg>
