<svg xmlns="http://www.w3.org/2000/svg" viewBox="0 0 400 400" role="img" aria-labelledby="title"><title>Jewelry product illustration</title><defs><linearGradient id="bg" x1="0" y1="0" x2="1" y2="1"><stop stop-color="#fce7f3"/><stop offset="1" stop-color="#fbcfe8"/></linearGradient><linearGradient id="gold" x1="0" y1="0" x2="1" y2="1"><stop stop-color="#f59e0b"/><stop offset="1" stop-color="#b45309"/></linearGradient></defs><rect width="400" height="400" rx="36" fill="url(#bg)"/><circle cx="92" cy="90" r="42" fill="#fff" opacity=".45"/><path d="M200 92c-66 0-105 53-105 113 0 65 46 109 105 109s105-44 105-109c0-60-39-113-105-113z" fill="none" stroke="url(#gold)" stroke-width="18"/><path d="m200 122 25 50 55 8-40 39 10 55-50-26-50 26 10-55-40-39 55-8z" fill="#fde68a" stroke="#f59e0b" stroke-width="7"/><circle cx="200" cy="180" r="18" fill="#fff7ed"/></svg>
