<svg xmlns="http://www.w3.org/2000/svg" viewBox="0 0 400 400" role="img" aria-labelledby="title"><title>T-shirt product illustration</title><defs><linearGradient id="bg" x1="0" y1="0" x2="1" y2="1"><stop stop-color="#fef3c7"/><stop offset="1" stop-color="#fde68a"/></linearGradient><linearGradient id="shirt" x1="0" y1="0" x2="1" y2="1"><stop stop-color="#ea580c"/><stop offset="1" stop-color="#be123c"/></linearGradient></defs><rect width="400" height="400" rx="36" fill="url(#bg)"/><circle cx="94" cy="92" r="46" fill="#fff" opacity=".4"/><path d="M151 103 101 126 61 190l51 28 25-36v107h126V182l25 36 51-28-40-64-50-23c-12 18-26 27-44 27s-32-9-44-27z" fill="url(#shirt)"/><path d="M169 105c7 12 17 18 31 18s24-6 31-18" fill="none" stroke="#fecdd3" stroke-width="8" stroke-linecap="round"/><path d="M143 236h114" stroke="#fb7185" stroke-width="8" stroke-linecap="round" opacity=".6"/></svg>
